<svg xmlns="http://www.w3.org/2000/svg" viewBox="0 0 143.86 164.51"><defs><style>.cls-1{fill:#4c7ec0;}.cls-2{fill:#231f20;}</style></defs><g id="Layer_2" data-name="Layer 2"><g id="Layer_1-2" data-name="Layer 1"><path class="cls-1" d="M110.55,81.27c-1.83,3.67-3.52,7.06-5.2,10.45-1.37,2.76-2.7,5.54-4.09,8.29-1.05,2.07-2.54,3.62-5.08,3.55a6.16,6.16,0,0,1-5.54-3.65c-2.87-5.66-5.66-11.36-8.49-17-.19-.39-.4-.78-.71-1.39a30.64,30.64,0,0,0-1.11,4.92q-1.56,7.75-3,15.53c-.18.9-.47,1.32-1.52,1.28-3.05-.09-6.1,0-9.14,0-.81,0-1-.2-.78-1q4.22-17.94,8.36-35.9A7.78,7.78,0,0,1,75.85,63a5.1,5.1,0,0,1,8.22-.06c1.82,2.15,2.73,4.81,4,7.28,2.5,5,4.91,10,7.36,15,.15.32.34.62.59,1l6.87-14c1.26-2.56,2.46-5.16,3.82-7.68,1.66-3.08,3.9-4.31,6.48-3.55a6.44,6.44,0,0,1,4.49,5.08c1,3.95,1.8,7.93,2.69,11.9q4.69,20.92,9.36,41.86c.24,1.07.45,1.15,1.42.68,2.62-1.27,3.58-3.2,3.57-6.13q-.13-32.45,0-64.9a5.43,5.43,0,0,0-3-5.22Q103.35,28,75.09,11.64a5.65,5.65,0,0,0-6.27,0C54.57,19.93,40.26,28.15,26,36.43c-1,.6-1.49.59-2.06-.55-1-2-2.09-3.84-3.22-5.72-.44-.73-.41-1.09.38-1.54Q45.33,14.67,69.54.67a4.83,4.83,0,0,1,5.2.2q25,14.45,49.94,28.85c5.3,3.07,10.57,6.19,15.93,9.16a5.77,5.77,0,0,1,3.25,5.64c-.05,21.9,0,43.81,0,65.71,0,3.36-.05,6.72,0,10.08a5.37,5.37,0,0,1-3,5.22c-5.81,3.26-11.56,6.62-17.31,10-1,.57-1.25.48-1.49-.64q-4.71-22.23-9.49-44.45C111.9,87.48,111.25,84.54,110.55,81.27Z"/><path class="cls-2" d="M45.31,87l6.75-11.67q3.77-6.5,7.52-13c.29-.51.52-1,1.27-1,4,0,8,0,11.94,0,.25.47-.12.72-.28,1Q61.69,80.6,50.87,98.82a15.07,15.07,0,0,1-2.58,3.42q-3.23,3-6.4,0a14.12,14.12,0,0,1-2.47-3.33L10.66,48.55a8,8,0,0,0-1.38-1.89v1.11q0,33.79,0,67.59a5,5,0,0,0,2.72,4.7q28.61,16.47,57.16,33a5.36,5.36,0,0,0,5.91-.17c12.6-7.33,25.24-14.59,37.85-21.91,1-.59,1.42-.71,1.63.69.36,2.39.93,4.74,1.46,7.09a1.19,1.19,0,0,1-.69,1.5Q94.9,152,74.51,163.8a5.16,5.16,0,0,1-5.57-.24Q38.12,145.72,7.26,127.92c-1.44-.83-2.84-1.7-4.31-2.46a5.1,5.1,0,0,1-2.92-5c0-1.83,0-3.67,0-5.51,0-23.38,0-46.76,0-70.14a6.08,6.08,0,0,1,3.51-6.06C6.76,37,9.9,35.14,13,33.24c1-.59,1.39-.56,2,.5Q29.78,59.84,44.62,85.9C44.8,86.21,45,86.5,45.31,87Z"/></g></g></svg>