<svg xmlns="http://www.w3.org/2000/svg" viewBox="0 0 303.8 200.79"><defs><style>.cls-1{fill:#4c7ec0;}.cls-2{fill:#231f20;}</style></defs><g id="Layer_2" data-name="Layer 2"><g id="Layer_1-2" data-name="Layer 1"><path class="cls-1" d="M120.71,188.52c-.71,2.19-1.42,4.37-2.11,6.56-.33,1-.63,2-.95,3.07-.76,2.4-.77,2.31-3.32,2.44-1.29.06-1.74-.4-2.08-1.57-1.06-3.58-2.26-7.13-3.43-10.79a1.79,1.79,0,0,0-.2,1.3c0,3.27,0,6.54,0,9.81,0,.87-.12,1.35-1.14,1.22-1.18-.15-2.72.51-3.47-.29s-.18-2.22-.19-3.37c0-5.42,0-10.84,0-16.26,0-.9.18-1.29,1.17-1.23,1.51.09,3.33-.45,4.48.22s1.19,2.67,1.72,4.08c1.06,2.85,2,5.72,3.08,8.57.17.45.19,1,.74,1.36l3.56-10.12c.38-1.1.77-2.19,1.12-3.29a1,1,0,0,1,1.17-.81c1.34.05,2.69,0,4,0,.72,0,.9.26.9.94q0,9.6,0,19.21c0,.77-.22,1-1,1a17.7,17.7,0,0,0-2.82,0c-.89.08-1-.32-1-1.09,0-3.62,0-7.25,0-10.88Z"/><path class="cls-1" d="M216.71,188.48c-.38,1.17-.76,2.33-1.13,3.49-.81,2.51-1.65,5-2.37,7.54-.25.89-.69,1.06-1.51,1.06-3,0-3,0-3.91-2.92-1-3.13-2-6.25-3.23-9.33,0,3.69,0,7.37,0,11.06,0,.93-.22,1.28-1.18,1.18-1.15-.12-2.64.46-3.38-.22s-.23-2.2-.24-3.35c0-5.46,0-10.93,0-16.39,0-1,.27-1.24,1.2-1.19,1.52.09,3.33-.43,4.47.23s1.21,2.67,1.73,4.09c1.22,3.3,2.38,6.62,3.68,10.28,1-2.92,1.94-5.53,2.86-8.14.65-1.85,1.31-3.7,1.93-5.57a1.09,1.09,0,0,1,1.24-.89c1.29.07,2.6.05,3.89,0,.71,0,1,.12,1,.94,0,6.4,0,12.81,0,19.21,0,.74-.17,1.05-1,1a20.42,20.42,0,0,0-2.82,0c-.86.07-1-.28-1-1.08,0-3.22,0-6.44,0-9.67v-1.28Z"/><path class="cls-1" d="M181.81,189.92c0,3.18,0,6.36,0,9.53,0,.9-.28,1.11-1.13,1.12-3.58,0-3.58,0-3.58-3.47,0-1.52,0-3,0-4.57,0-.62-.19-.87-.84-.86-1.88,0-3.76,0-5.64,0-.84,0-1,.37-.94,1.05,0,2.29,0,4.57,0,6.85,0,.75-.2,1-1,1-3.74.1-3.74.12-3.74-3.58,0-5.51,0-11,0-16.52,0-.9.17-1.31,1.16-1.21a12.78,12.78,0,0,0,2.55,0c.87-.07,1,.29,1,1.08,0,2.06,0,4.12,0,6.17,0,.75.22,1,1,1,1.79,0,3.58-.05,5.37,0,.82,0,1.08-.24,1.06-1.07,0-2,0-4,0-6,0-1,.29-1.23,1.21-1.15,1.1.09,2.57-.35,3.24.21s.24,2.18.26,3.32C181.84,185.17,181.81,187.55,181.81,189.92Z"/><path class="cls-1" d="M284.25,187a2.82,2.82,0,0,1-3.08-1.51,4.14,4.14,0,0,0-7,.41,7.62,7.62,0,0,0-.07,7.82,4.21,4.21,0,0,0,7.25.28,2.44,2.44,0,0,1,2.61-1.25,14,14,0,0,0,2.15,0c.92-.06,1,.26.78,1.1a9.05,9.05,0,0,1-8.43,6.87c-4.32.23-7.81-1.89-9.23-5.92-1.67-4.77-1.46-9.41,2.23-13.25,2.6-2.72,6-3.07,9.45-2.05,3.32,1,5.11,3.42,6.05,6.62.19.63.08.94-.65.9C285.75,187,285.17,187,284.25,187Z"/><path class="cls-2" d="M63.67,200.55c.94-2.74,1.83-5.35,2.71-8,1.37-4.06,2.74-8.11,4.07-12.19a1.22,1.22,0,0,1,1.42-1,28.8,28.8,0,0,0,3.35,0,1.22,1.22,0,0,1,1.44,1q3.14,9.45,6.4,18.88c.39,1.12.14,1.45-1,1.3a3.23,3.23,0,0,0-.54,0c-3.11,0-3.13,0-4.1-2.93-.21-.66-.49-.94-1.21-.92-1.78,0-3.57,0-5.36,0a1.05,1.05,0,0,0-1.25.87c-.27,1-.39,2.33-1.06,2.78s-2.07.18-3.13.2Zm9.88-15.47-1.3,4.14c-1.19,3.82-1.19,3.81,2.86,3.51.6,0,.8-.15.59-.78C75,189.79,74.34,187.62,73.55,185.08Z"/><path class="cls-1" d="M137.5,179.43c2.67,0,2.67,0,3.53,2.55,1.95,5.79,3.87,11.59,5.86,17.37.37,1.05.16,1.36-.9,1.2a2.67,2.67,0,0,0-.4,0c-1.07,0-2.32.3-3.17-.15s-.79-1.88-1.13-2.88a1,1,0,0,0-1.13-.83c-1.84,0-3.67,0-5.5,0-.72,0-1,.27-1.2.92-1,3-1,3-4.1,3-.32,0-.63,0-.94,0-.72.06-.81-.22-.59-.86q3.31-9.76,6.59-19.53a.91.91,0,0,1,1.07-.74C136.16,179.46,136.83,179.43,137.5,179.43Zm2.27,13.25c-.77-2.46-1.51-4.82-2.24-7.18l-.3,0L135,192.68Z"/><path class="cls-2" d="M45.83,186.78c0-2.41.05-4.38,0-6.34,0-1,.3-1.27,1.22-1.17,1.14.13,2.66-.49,3.32.27s.19,2.13.2,3.24c0,3,0,6.09,0,9.13,0,2.59,1.29,3.93,3.44,3.88a2.91,2.91,0,0,0,3-2.24,7.41,7.41,0,0,0,.3-2.25c0-3.62,0-7.25,0-10.87,0-.8.09-1.27,1.06-1.16,1.2.12,2.75-.48,3.5.23s.26,2.28.24,3.47c-.06,3.58.27,7.16-.19,10.73a7.8,7.8,0,0,1-8.18,7.09c-4.27-.06-7.21-2.81-7.72-7.21C45.68,191.17,45.92,188.75,45.83,186.78Z"/><path class="cls-2" d="M40.37,185.35a14.61,14.61,0,0,0-1.48,0,1,1,0,0,1-1.25-.86A1.93,1.93,0,0,0,35.5,183a1.56,1.56,0,0,0-1.56,1.24,2,2,0,0,0,1.15,2.46c1.56.77,3.19,1.39,4.77,2.13,3.41,1.59,4.08,4.83,3.09,8a4,4,0,0,1-.54,1.07c-1.57,2.39-4.66,3.34-8.18,2.54A6.66,6.66,0,0,1,28.88,195c-.11-.71.05-1,.79-.94a16.85,16.85,0,0,0,2,0c1.21-.07,2.31-.19,2.72,1.46a1.87,1.87,0,0,0,2.21,1.13,1.68,1.68,0,0,0,1.59-1.4,2.18,2.18,0,0,0-1.07-2.41,46.89,46.89,0,0,0-4.66-2,5.9,5.9,0,0,1-3.55-4.09A6.08,6.08,0,0,1,34.71,179c2.14-.11,4.21,0,6,1.47A6.73,6.73,0,0,1,43,184.59c.13.63-.16.78-.72.76S41,185.34,40.37,185.35Z"/><path class="cls-1" d="M291.77,194.06c.45,0,.89,0,1.34,0,.72-.05,1.21,0,1.41.94a2.15,2.15,0,0,0,2.29,1.69,1.74,1.74,0,0,0,1.79-1.36,2.19,2.19,0,0,0-1.31-2.65c-1.37-.65-2.79-1.19-4.18-1.8a6,6,0,0,1-3.82-7.25c.58-2.75,3.07-4.59,6.26-4.65a9.1,9.1,0,0,1,4.31.72,6.11,6.11,0,0,1,2.76,2.65c1.33,2.51,1.07,3-1.67,3-.5,0-1,0-1.48,0-.74.06-1.22-.06-1.47-.94a1.86,1.86,0,0,0-2.2-1.33,1.52,1.52,0,0,0-1.44,1.19,2.05,2.05,0,0,0,1,2.43,49.25,49.25,0,0,0,4.65,2,6,6,0,0,1,3.6,4.07,6.12,6.12,0,0,1-4.93,7.81,8.66,8.66,0,0,1-6.89-1.4,5.71,5.71,0,0,1-1.73-2C288.63,194.53,288.89,194.06,291.77,194.06Z"/><path class="cls-2" d="M0,179.28c1.53,0,3,.05,4.39,0,.76,0,.84.46,1,1q2,6.73,4,13.47c.1.34.21.68.42,1.31,1.07-3.6,2.08-6.93,3.07-10.27.45-1.49.93-3,1.33-4.49.18-.71.46-1,1.26-1,1.34.08,2.68,0,4.15,0-1.3,4.11-2.56,8.1-3.83,12.09-.87,2.77-1.78,5.52-2.63,8.3-.2.65-.5,1-1.22.9a16.67,16.67,0,0,0-1.87,0c-3.4,0-3.39,0-4.39-3.16q-2.61-8.31-5.24-16.6C.31,180.33.18,179.86,0,179.28Z"/><path class="cls-1" d="M185,189.9c0-3.17,0-6.35,0-9.53,0-.9.26-1.12,1.13-1.11,3.36.05,6.72.06,10.07,0,.94,0,1.09.33,1.09,1.16,0,2.93,0,2.93-2.93,2.93-1.21,0-2.42,0-3.62,0-.66,0-.93.13-1,.88-.14,3.55-.17,3.55,3.37,3.55h.4c3,0,3,0,2.84,3,0,.72-.25.92-.94.9-1.57,0-3.14,0-4.7,0-.79,0-1,.26-1,1,.11,1.19-.49,2.74.25,3.5s2.21.16,3.36.2c.9,0,1.79,0,2.69,0,.22,0,.53-.09.66,0,1.17,1,.24,2.29.51,3.43.14.6-.27.74-.8.73-3.54,0-7.07,0-10.61,0-.79,0-.85-.37-.84-1C185,196.35,185,193.13,185,189.9Z"/><path class="cls-1" d="M155.41,179.28c2.24,0,4.48,0,6.71,0,.74,0,1,.17,1,1,.07,3.12.1,3.12-3,3.12-2.33,0-2.33,0-2.33,2.27,0,4.61,0,9.22,0,13.83,0,.87-.22,1.18-1.11,1.11-1.2-.09-2.76.37-3.5-.23s-.23-2.26-.24-3.45c0-4.12,0-8.23,0-12.35,0-.9-.19-1.28-1.17-1.2s-2.15,0-3.22,0c-.57,0-.85-.16-.77-.75v-.14c-.15-3.18-.15-3.18,3-3.18Z"/><path class="cls-1" d="M253.75,191.92c0,2.56,0,5.11,0,7.66,0,.77-.2,1-1,1a20.42,20.42,0,0,0-2.82,0c-.88.07-1-.31-1-1.09,0-4.66,0-9.32,0-14,0-2.15,0-2.15-2.22-2.15h-.81c-2.17,0-2.17,0-2.17-2.18,0-1.89,0-1.89,1.92-1.89,4.07,0,8.15,0,12.23,0,1,0,1.18.28,1.18,1.21,0,2.88,0,2.88-2.86,2.88-2.49,0-2.49,0-2.49,2.53Z"/><path class="cls-2" d="M85.19,189.94c0-3.13,0-6.26,0-9.39,0-1,.14-1.42,1.22-1.29a10.23,10.23,0,0,0,2.41,0c1-.1,1.17.33,1.16,1.23,0,4.87,0,9.75,0,14.62,0,1.08.21,1.53,1.38,1.44,1.33-.11,2.68,0,4,0,.37,0,.9-.16.91.48q0,1.55,0,3.09c0,.55-.45.45-.79.45-3.13,0-6.26,0-9.39,0-.91,0-.87-.48-.87-1.1Q85.2,194.72,85.19,189.94Z"/><path class="cls-2" d="M21.42,189.77c0-3.09,0-6.18,0-9.27,0-1,.32-1.34,1.29-1.23s2.54-.47,3.23.23.2,2.13.21,3.24c0,5.55,0,11.1,0,16.65,0,1-.28,1.19-1.2,1.19-3.53,0-3.53,0-3.53-3.56Z"/><path class="cls-1" d="M265.67,189.9c0,3.18,0,6.36,0,9.54,0,.87-.23,1.21-1.12,1.12-1.15-.11-2.64.47-3.36-.23s-.22-2.2-.22-3.35c0-5.51,0-11,0-16.53,0-.93.22-1.29,1.18-1.18,1.15.13,2.68-.49,3.34.27s.19,2.12.2,3.24C265.68,185.15,265.67,187.52,265.67,189.9Z"/><path class="cls-1" d="M243.18,200.63c-1.52,0-2.86,0-4.2,0-.7,0-.9-.3-1.11-.86-.35-1-.25-2.39-1.14-2.88s-2-.12-3-.13h-.54c-1.11,0-2.42-.29-3.29.18s-.78,1.9-1.11,2.9c-.19.56-.44.8-1,.78-1.08,0-2.15,0-3.23,0-.86,0-.94-.23-.68-1,1.56-4.51,3.07-9,4.6-13.57.63-1.86,1.31-3.7,1.87-5.59a1.18,1.18,0,0,1,1.43-1c1.43.08,3.13-.39,4.21.24s1.1,2.51,1.56,3.85c1.79,5.24,3.54,10.49,5.3,15.74C242.9,199.71,243,200.09,243.18,200.63Zm-9.84-15.51c-.8,2.58-1.51,4.86-2.23,7.13-.13.41,0,.56.42.55,1.36,0,2.72,0,4.19,0C234.93,190.24,234.19,187.86,233.34,185.12Z"/><path class="cls-1" d="M187.56,81.27l-5.19,10.45c-1.37,2.76-2.7,5.54-4.09,8.29-1.05,2.07-2.55,3.62-5.08,3.55a6.16,6.16,0,0,1-5.54-3.65c-2.87-5.66-5.67-11.36-8.49-17l-.71-1.39a29.6,29.6,0,0,0-1.11,4.92q-1.57,7.75-3,15.53c-.17.9-.47,1.32-1.52,1.28-3-.09-6.09,0-9.14,0-.8,0-1-.2-.77-1q4.2-17.94,8.36-35.9A7.65,7.65,0,0,1,152.86,63c2.35-2.78,5.88-2.83,8.22-.06,1.82,2.15,2.74,4.81,4,7.28,2.5,5,4.9,10,7.35,15,.16.32.35.62.6,1l6.87-14c1.26-2.56,2.46-5.16,3.82-7.68,1.66-3.08,3.89-4.31,6.48-3.55a6.43,6.43,0,0,1,4.48,5.08c1,3.95,1.8,7.93,2.69,11.9q4.69,20.92,9.37,41.86c.23,1.07.44,1.15,1.42.68,2.61-1.27,3.58-3.2,3.57-6.13q-.15-32.45,0-64.9a5.44,5.44,0,0,0-3-5.22Q180.35,28,152.1,11.64a5.64,5.64,0,0,0-6.26,0c-14.26,8.3-28.56,16.52-42.83,24.8-1,.6-1.5.59-2.06-.55-1-2-2.1-3.84-3.23-5.72-.44-.73-.4-1.09.39-1.54Q122.35,14.67,146.55.67a4.83,4.83,0,0,1,5.2.2q25,14.45,49.94,28.85c5.31,3.07,10.58,6.19,15.93,9.16a5.78,5.78,0,0,1,3.26,5.64q-.07,32.85,0,65.71c0,3.36,0,6.72,0,10.08a5.38,5.38,0,0,1-3,5.22c-5.81,3.26-11.57,6.62-17.31,10-1,.57-1.26.48-1.5-.64q-4.69-22.23-9.48-44.45C188.92,87.48,188.27,84.54,187.56,81.27Z"/><path class="cls-2" d="M122.32,87c2.33-4,4.55-7.84,6.76-11.67q3.76-6.5,7.52-13c.29-.51.51-1,1.27-1,4,0,8,0,11.93,0,.26.47-.11.72-.27,1Q138.71,80.6,127.88,98.82a15,15,0,0,1-2.57,3.42c-2.16,2-4.28,2-6.4,0a14.16,14.16,0,0,1-2.48-3.33L87.68,48.55a8,8,0,0,0-1.38-1.89v1.11q0,33.79,0,67.59a5,5,0,0,0,2.72,4.7q28.59,16.47,57.16,33a5.36,5.36,0,0,0,5.91-.17c12.6-7.33,25.24-14.59,37.85-21.91,1-.59,1.41-.71,1.62.69.36,2.39.94,4.74,1.46,7.09a1.18,1.18,0,0,1-.68,1.5Q171.91,152,151.52,163.8a5.14,5.14,0,0,1-5.56-.24q-30.84-17.84-61.69-35.64c-1.43-.83-2.84-1.7-4.31-2.46a5.12,5.12,0,0,1-2.92-5c0-1.83,0-3.67,0-5.51,0-23.38,0-46.76,0-70.14a6.08,6.08,0,0,1,3.51-6.06c3.24-1.7,6.39-3.59,9.53-5.49,1-.59,1.38-.56,2,.5q14.76,26.1,29.6,52.16C121.81,86.21,122,86.5,122.32,87Z"/></g></g></svg>