<svg xmlns="http://www.w3.org/2000/svg" viewBox="0 0 303.8 21.83"><defs><style>.cls-1{fill:#4c7ec0;}.cls-2{fill:#231f20;}</style></defs><g id="Layer_2" data-name="Layer 2"><g id="Layer_1-2" data-name="Layer 1"><path class="cls-1" d="M120.71,9.56c-.71,2.19-1.42,4.37-2.11,6.56-.33,1-.63,2.05-.95,3.07-.76,2.4-.77,2.31-3.32,2.44-1.29.06-1.74-.4-2.08-1.57-1.06-3.58-2.26-7.13-3.43-10.78a1.76,1.76,0,0,0-.2,1.29c0,3.27,0,6.54,0,9.81,0,.87-.12,1.35-1.14,1.22-1.18-.15-2.72.51-3.47-.29s-.18-2.22-.19-3.37c0-5.42,0-10.84,0-16.26,0-.9.18-1.29,1.17-1.23,1.51.09,3.33-.45,4.48.22s1.19,2.67,1.72,4.08c1.06,2.85,2,5.72,3.08,8.57.17.45.19,1,.74,1.36,1.2-3.4,2.38-6.76,3.56-10.12.38-1.09.77-2.19,1.12-3.29a1,1,0,0,1,1.17-.81c1.34,0,2.69,0,4,0,.72,0,.9.26.9.94q0,9.62,0,19.21c0,.77-.22,1-1,1a19,19,0,0,0-2.82,0c-.89.08-1-.32-1-1.08,0-3.63,0-7.26,0-10.89Z"/><path class="cls-1" d="M216.71,9.53c-.38,1.16-.76,2.32-1.13,3.48-.81,2.51-1.65,5-2.37,7.55-.25.88-.69,1.05-1.51,1.05-3,0-3,0-3.91-2.91-1-3.14-2-6.26-3.23-9.34,0,3.69,0,7.37,0,11.06,0,.93-.22,1.28-1.18,1.18-1.15-.12-2.64.46-3.38-.22s-.23-2.2-.24-3.35c0-5.46,0-10.93,0-16.39,0-.95.27-1.24,1.2-1.19,1.52.09,3.33-.43,4.47.23s1.21,2.67,1.73,4.09c1.22,3.3,2.38,6.63,3.68,10.28,1-2.92,1.94-5.53,2.86-8.14.65-1.85,1.31-3.7,1.93-5.57a1.09,1.09,0,0,1,1.24-.89c1.29.07,2.6,0,3.89,0,.71,0,1,.12,1,.94,0,6.41,0,12.81,0,19.21,0,.75-.17,1.05-1,1a22.11,22.11,0,0,0-2.82,0c-.86.07-1-.28-1-1.07,0-3.23,0-6.45,0-9.68V9.57Z"/><path class="cls-1" d="M181.81,11c0,3.18,0,6.36,0,9.53,0,.9-.28,1.11-1.13,1.12-3.58,0-3.58.05-3.58-3.47,0-1.52,0-3.05,0-4.57,0-.62-.19-.87-.84-.86-1.88,0-3.76,0-5.64,0-.84,0-1,.37-.94,1.06,0,2.28,0,4.56,0,6.85,0,.74-.2,1-1,1-3.74.1-3.74.13-3.74-3.58,0-5.51,0-11,0-16.52,0-.9.17-1.31,1.16-1.21a13.57,13.57,0,0,0,2.55,0c.87-.08,1,.28,1,1.07,0,2.06,0,4.12,0,6.18,0,.74.22,1,1,1,1.79,0,3.58,0,5.37,0,.82,0,1.08-.25,1.06-1.07,0-2,0-4,0-6,0-1,.29-1.23,1.21-1.15,1.1.09,2.57-.35,3.24.22s.24,2.17.26,3.31C181.84,6.21,181.81,8.59,181.81,11Z"/><path class="cls-1" d="M284.25,8.06a2.82,2.82,0,0,1-3.08-1.51,4.14,4.14,0,0,0-7,.41,7.62,7.62,0,0,0-.07,7.82,4.21,4.21,0,0,0,7.25.28A2.46,2.46,0,0,1,284,13.81a15.43,15.43,0,0,0,2.15,0c.92-.07,1,.25.78,1.09a9,9,0,0,1-8.43,6.87c-4.32.23-7.81-1.89-9.23-5.92-1.67-4.77-1.46-9.41,2.23-13.25,2.6-2.71,6-3.07,9.45-2C284.25,1.53,286,4,287,7.17c.19.63.08.94-.65.9C285.75,8,285.17,8.06,284.25,8.06Z"/><path class="cls-2" d="M63.67,21.59c.94-2.74,1.83-5.35,2.71-8,1.37-4.06,2.74-8.11,4.07-12.18.25-.76.6-1.08,1.42-1a26.75,26.75,0,0,0,3.35,0,1.22,1.22,0,0,1,1.44,1q3.14,9.45,6.4,18.88c.39,1.12.14,1.45-1,1.3a3.23,3.23,0,0,0-.54,0c-3.11,0-3.13,0-4.1-2.93-.21-.66-.49-.94-1.21-.92-1.78.05-3.57,0-5.36,0-.68,0-1.06.17-1.25.87-.27,1-.39,2.33-1.06,2.78s-2.07.18-3.13.2C64.9,21.6,64.37,21.59,63.67,21.59ZM73.55,6.12l-1.3,4.14c-1.19,3.82-1.19,3.81,2.86,3.51.6,0,.8-.15.59-.78C75,10.83,74.34,8.66,73.55,6.12Z"/><path class="cls-1" d="M137.5.47c2.67,0,2.67,0,3.53,2.55,1.95,5.79,3.87,11.59,5.86,17.37.37,1.06.16,1.36-.9,1.2a2.67,2.67,0,0,0-.4,0c-1.07,0-2.32.3-3.17-.15s-.79-1.88-1.13-2.88a1,1,0,0,0-1.13-.83c-1.84,0-3.67,0-5.5,0-.72,0-1,.27-1.2.92-1,3-1,2.95-4.1,2.95-.32,0-.63,0-.94,0-.72.06-.81-.22-.59-.86Q131.14,11,134.42,1.2a.91.91,0,0,1,1.07-.74C136.16.51,136.83.47,137.5.47Zm2.27,13.25c-.77-2.46-1.51-4.82-2.24-7.18l-.3,0L135,13.72Z"/><path class="cls-2" d="M45.83,7.82c0-2.41.05-4.38,0-6.34,0-1,.3-1.27,1.22-1.17,1.14.13,2.66-.49,3.32.27s.19,2.13.2,3.24c0,3,0,6.09,0,9.13,0,2.59,1.29,3.93,3.44,3.89a2.93,2.93,0,0,0,3-2.24,7.51,7.51,0,0,0,.3-2.26c0-3.62,0-7.25,0-10.87,0-.8.09-1.27,1.06-1.16,1.2.12,2.75-.48,3.5.23s.26,2.28.24,3.47c-.06,3.58.27,7.16-.19,10.73a7.8,7.8,0,0,1-8.18,7.09C49.41,21.77,46.47,19,46,14.62,45.68,12.21,45.92,9.8,45.83,7.82Z"/><path class="cls-2" d="M40.37,6.39a14.61,14.61,0,0,0-1.48,0,1,1,0,0,1-1.25-.86A1.92,1.92,0,0,0,35.5,4.09a1.54,1.54,0,0,0-1.56,1.23,2,2,0,0,0,1.15,2.46c1.56.77,3.19,1.39,4.77,2.13,3.41,1.59,4.08,4.83,3.09,8A4.2,4.2,0,0,1,42.41,19c-1.57,2.38-4.66,3.33-8.18,2.53a6.66,6.66,0,0,1-5.35-5.5c-.11-.72.05-1,.79-1a16.85,16.85,0,0,0,2,0c1.21-.07,2.31-.19,2.72,1.46a1.86,1.86,0,0,0,2.21,1.13,1.68,1.68,0,0,0,1.59-1.4,2.18,2.18,0,0,0-1.07-2.41,46.89,46.89,0,0,0-4.66-2,5.9,5.9,0,0,1-3.55-4.09A6.08,6.08,0,0,1,34.71,0c2.14-.11,4.21,0,6,1.47A6.73,6.73,0,0,1,43,5.63c.13.63-.16.79-.72.76S41,6.39,40.37,6.39Z"/><path class="cls-1" d="M291.77,15.11c.45,0,.89,0,1.34,0,.72,0,1.21,0,1.41.94a2.14,2.14,0,0,0,2.29,1.69,1.74,1.74,0,0,0,1.79-1.36,2.19,2.19,0,0,0-1.31-2.65c-1.37-.65-2.79-1.19-4.18-1.8a6,6,0,0,1-3.82-7.25c.58-2.75,3.07-4.59,6.26-4.65a9.1,9.1,0,0,1,4.31.73,6,6,0,0,1,2.76,2.64c1.33,2.51,1.07,3-1.67,3-.5,0-1,0-1.48,0-.74.06-1.22-.06-1.47-.94a1.86,1.86,0,0,0-2.2-1.33,1.52,1.52,0,0,0-1.44,1.19,2.05,2.05,0,0,0,1,2.43,46.8,46.8,0,0,0,4.65,2,6,6,0,0,1,3.6,4.07,6.12,6.12,0,0,1-4.93,7.81,8.66,8.66,0,0,1-6.89-1.4,5.71,5.71,0,0,1-1.73-2C288.63,15.57,288.89,15.11,291.77,15.11Z"/><path class="cls-2" d="M0,.32c1.53,0,3,0,4.39,0,.76,0,.84.45,1,1q2,6.73,4,13.47c.1.34.21.68.42,1.31,1.07-3.6,2.08-6.93,3.07-10.26.45-1.5.93-3,1.33-4.5.18-.71.46-1,1.26-1,1.34.08,2.68,0,4.15,0-1.3,4.11-2.56,8.1-3.83,12.09-.87,2.77-1.78,5.52-2.63,8.3-.2.66-.5,1-1.22.9a16.67,16.67,0,0,0-1.87,0c-3.4,0-3.39,0-4.39-3.16Q3.09,10.14.46,1.83C.31,1.37.18.9,0,.32Z"/><path class="cls-1" d="M185,11c0-3.18,0-6.36,0-9.54,0-.9.26-1.12,1.13-1.11,3.36,0,6.72.06,10.07,0,.94,0,1.09.33,1.09,1.16,0,2.93,0,2.93-2.93,2.93-1.21,0-2.42,0-3.62,0-.66,0-.93.12-1,.87-.14,3.55-.17,3.55,3.37,3.55h.4c3,0,3,0,2.84,3,0,.71-.25.91-.94.89-1.57,0-3.14,0-4.7,0-.79,0-1,.26-1,1,.11,1.19-.49,2.74.25,3.5s2.21.16,3.36.2c.9,0,1.79,0,2.69,0,.22,0,.53-.09.66,0,1.17,1,.24,2.29.51,3.43.14.6-.27.74-.8.73-3.54,0-7.07,0-10.61,0-.79,0-.85-.37-.84-1C185,17.39,185,14.17,185,11Z"/><path class="cls-1" d="M155.41.32c2.24,0,4.48,0,6.71,0,.74,0,1,.17,1,1,.07,3.12.1,3.12-3,3.12-2.33,0-2.33,0-2.33,2.28,0,4.6,0,9.21,0,13.82,0,.87-.22,1.19-1.11,1.11-1.2-.09-2.76.37-3.5-.23s-.23-2.26-.24-3.45c0-4.11,0-8.23,0-12.35,0-.9-.19-1.28-1.17-1.2s-2.15,0-3.22,0c-.57,0-.85-.17-.77-.76V3.5c-.15-3.18-.15-3.18,3-3.18Z"/><path class="cls-1" d="M253.75,13c0,2.55,0,5.1,0,7.66,0,.76-.2,1-1,1a19,19,0,0,0-2.82,0c-.88.06-1-.32-1-1.1,0-4.66,0-9.31,0-14,0-2.15,0-2.15-2.22-2.15h-.81c-2.17,0-2.17,0-2.17-2.18,0-1.89,0-1.89,1.92-1.89,4.07,0,8.15,0,12.23,0,1,0,1.18.28,1.18,1.21,0,2.88,0,2.88-2.86,2.88-2.49,0-2.49,0-2.49,2.53Z"/><path class="cls-2" d="M85.19,11c0-3.14,0-6.27,0-9.4,0-.95.14-1.42,1.22-1.29a10.79,10.79,0,0,0,2.41,0C89.79.2,90,.63,90,1.53c0,4.87,0,9.75,0,14.62,0,1.08.21,1.53,1.38,1.44,1.33-.1,2.68,0,4,0,.37,0,.9-.16.91.48q0,1.54,0,3.09c0,.55-.45.45-.79.45-3.13,0-6.26,0-9.39,0-.91,0-.87-.48-.87-1.1C85.19,17.34,85.19,14.16,85.19,11Z"/><path class="cls-2" d="M21.42,10.81c0-3.09,0-6.18,0-9.27,0-1,.32-1.34,1.29-1.23s2.54-.47,3.23.24.2,2.12.21,3.23c0,5.55,0,11.1,0,16.65,0,1-.28,1.19-1.2,1.19-3.53,0-3.53,0-3.53-3.56Z"/><path class="cls-1" d="M265.67,10.94c0,3.18,0,6.36,0,9.54,0,.87-.23,1.21-1.12,1.12-1.15-.11-2.64.47-3.36-.23S261,19.17,261,18c0-5.51,0-11,0-16.53,0-.93.22-1.29,1.18-1.18,1.15.13,2.68-.49,3.34.27s.19,2.12.2,3.24C265.68,6.19,265.67,8.57,265.67,10.94Z"/><path class="cls-1" d="M243.18,21.67c-1.52,0-2.86-.05-4.2,0-.7,0-.9-.3-1.11-.86-.35-1-.25-2.39-1.14-2.88s-2-.11-3-.13h-.54c-1.11,0-2.42-.29-3.29.19s-.78,1.89-1.11,2.89c-.19.56-.44.8-1,.78-1.08,0-2.15-.05-3.23,0-.86.05-.94-.23-.68-1,1.56-4.51,3.07-9,4.6-13.56.63-1.87,1.31-3.71,1.87-5.6a1.18,1.18,0,0,1,1.43-1c1.43.08,3.13-.39,4.21.24s1.1,2.51,1.56,3.85c1.79,5.24,3.54,10.49,5.3,15.74C242.9,20.75,243,21.13,243.18,21.67ZM233.34,6.16c-.8,2.58-1.51,4.86-2.23,7.13-.13.41,0,.56.42.56,1.36,0,2.72,0,4.19,0C234.93,11.28,234.19,8.9,233.34,6.16Z"/></g></g></svg>